PathFileType	4	(X/Y/Z)	/Users/itak/Documents/Research/Walk-IL/dataset/trc/00338_00011.trc
DataRate	CameraRate	NumFrames	NumMarkers	Units	OrigDataRate	OrigDataStartFrame	OrigNumFrames
100.000000	100.000000	4	54	mm	100.000000	382	764
Frame#	Time	RPSI			LPSI			L3			STRN			T10			C7			CLAV			RBAK			LBAK			LSHO			LUPA			LAEL			LAOL			LWTS			LWPS			LFRA			LIFD			LHPS			LHTS			RSHO			RUPA			RAEL			RAOL			RWPS			RFRA			RIFD			RHTS			RHPS			RBHD			LFHD			RFHD			LBHD			LHIP			RHIP			RASI			LASI			LKNE			LTHI			LANK			LTIP			LTOE			LMT1			LMT5			LHEE			RKNE			RTHI			RANK			RTIP			RTOE			RMT5			RHEE			RWTS			RMT1			*53			
		X1	Y1	Z1	X2	Y2	Z2	X3	Y3	Z3	X4	Y4	Z4	X5	Y5	Z5	X6	Y6	Z6	X7	Y7	Z7	X8	Y8	Z8	X9	Y9	Z9	X10	Y10	Z10	X11	Y11	Z11	X12	Y12	Z12	X13	Y13	Z13	X14	Y14	Z14	X15	Y15	Z15	X16	Y16	Z16	X17	Y17	Z17	X18	Y18	Z18	X19	Y19	Z19	X20	Y20	Z20	X21	Y21	Z21	X22	Y22	Z22	X23	Y23	Z23	X24	Y24	Z24	X25	Y25	Z25	X26	Y26	Z26	X27	Y27	Z27	X28	Y28	Z28	X29	Y29	Z29	X30	Y30	Z30	X31	Y31	Z31	X32	Y32	Z32	X33	Y33	Z33	X34	Y34	Z34	X35	Y35	Z35	X36	Y36	Z36	X37	Y37	Z37	X38	Y38	Z38	X39	Y39	Z39	X40	Y40	Z40	X41	Y41	Z41	X42	Y42	Z42	X43	Y43	Z43	X44	Y44	Z44	X45	Y45	Z45	X46	Y46	Z46	X47	Y47	Z47	X48	Y48	Z48	X49	Y49	Z49	X50	Y50	Z50	X51	Y51	Z51	X52	Y52	Z52	X53	Y53	Z53	X54	Y54	Z54	

383	3.82	632.4323120117188	962.5191650390625	-508.0027770996094	585.3758544921875	951.7628784179688	-387.0315856933594	615.708984375	1024.134521484375	-446.5711975097656	386.487060546875	1206.32568359375	-512.8911743164062	617.4559326171875	1142.560180664062	-437.3792419433594	566.4349975585938	1389.485229492188	-427.0878601074219	424.9728088378906	1330.509765625	-487.7921142578125	640.8445434570312	1255.308471679688	-479.5270385742188	544.39697265625	1349.31494140625	-330.6321716308594	445.1588745117188	1362.1923828125	-306.0277709960938	450.0152587890625	1245.989624023438	-233.3792877197266	451.7706909179688	1043.375	-212.281982421875	528.3738403320312	1036.213134765625	-248.1810913085938	407.7828369140625	784.6416625976562	-258.1554565429688	428.3952941894531	785.8203735351562	-191.6737976074219	447.9171447753906	938.8834838867188	-199.7599182128906	435.26904296875	626.0357666015625	-242.0037384033203	445.1087036132812	717.160400390625	-187.086181640625	405.3944091796875	705.9047241210938	-236.1826934814453	570.6593017578125	1384.320556640625	-597.4791259765625	607.4390258789062	1328.09912109375	-657.698486328125	639.4010620117188	1075.162231445312	-741.2703857421875	636.8745727539062	1047.428466796875	-648.1612548828125	605.7188110351562	846.861328125	-844.2447509765625	627.873779296875	1012.356811523438	-773.7017822265625	552.4686889648438	680.0006103515625	-851.0775146484375	532.8060302734375	751.4030151367188	-850.93798828125	600.5403442382812	763.74951171875	-866.4937133789062	510.4902648925781	1599.496337890625	-534.7074584960938	325.3032531738281	1579.979858398438	-442.3476867675781	348.5708312988281	1585.501342773438	-540.7953491210938	503.7944946289062	1591.560668945312	-390.5369262695312	463.1876220703125	895.844970703125	-327.0419616699219	599.4913940429688	919.8224487304688	-642.7850952148438	485.9246826171875	950.1638793945312	-642.2959594726562	379.91455078125	931.8584594726562	-428.1963500976562	292.8429260253906	471.3717651367188	-448.5356140136719	327.3271789550781	596.85888671875	-413.1639404296875	614.15380859375	196.2689056396484	-378.6275634765625	448.8672485351562	314.2890319824219	-406.6856384277344	516.0992431640625	46.81166458129883	-492.07080078125	582.4266967773438	89.53166961669922	-503.7474670410156	536.8909301757812	100.1261749267578	-400.8951416015625	662.4429321289062	221.8361206054688	-430.2698974609375	535.0521240234375	456.5982666015625	-679.0947875976562	524.0410766601562	718.45849609375	-691.6954345703125	621.625732421875	46.13999557495117	-642.8350219726562	532.2747192382812	336.2533874511719	-677.0352783203125	426.7804260253906	39.64460754394531	-689.5200805664062	542.7398681640625	30.38081932067871	-705.1934814453125	640.3760986328125	49.451416015625	-575.2908935546875	540.734375	846.5068359375	-802.5628662109375	454.0529479980469	34.55438995361328	-625.627685546875	nan	nan	nan	
384	3.83	626.1298828125	962.5581665039062	-512.9188232421875	580.4603881835938	952.0733642578125	-391.4006652832031	610.7047729492188	1024.755615234375	-451.4055786132812	379.3338317871094	1206.781982421875	-515.2431030273438	611.8624877929688	1143.042114257812	-442.8574523925781	560.5371704101562	1389.867065429688	-432.0755310058594	418.3019714355469	1330.943115234375	-490.4290466308594	634.308349609375	1255.832153320312	-485.8577270507812	540.2684936523438	1349.815551757812	-335.3999633789062	441.5183410644531	1362.568481445312	-309.1144409179688	448.7233581542969	1247.059204101562	-235.9089202880859	452.9823303222656	1044.757934570312	-212.7951812744141	528.4108276367188	1037.75048828125	-251.0393981933594	408.3409423828125	785.6848754882812	-255.5710144042969	431.3448181152344	787.2061767578125	-189.6373901367188	449.9884033203125	940.339599609375	-199.3199005126953	436.2458801269531	627.2117919921875	-239.5327758789062	448.1508483886719	718.60986328125	-185.3288269042969	406.689453125	707.1275024414062	-233.0733032226562	562.110595703125	1385.122680664062	-602.3244018554688	597.7868041992188	1329.200073242188	-663.3693237304688	626.6571655273438	1077.318603515625	-751.0233764648438	625.8642578125	1048.283447265625	-658.23095703125	588.5916748046875	850.671630859375	-856.2156372070312	613.9124755859375	1014.959777832031	-783.9835205078125	533.4515380859375	684.4874267578125	-864.2196044921875	514.5155029296875	756.078369140625	-862.64453125	582.0758056640625	767.888671875	-879.4566040039062	502.2093811035156	1600.006713867188	-538.946533203125	318.5979614257812	1579.874145507812	-443.3108825683594	340.1285705566406	1585.445068359375	-542.164794921875	497.8034057617188	1592.025024414062	-394.7807312011719	458.5529479980469	897.1655883789062	-330.1488952636719	591.9155883789062	919.2491455078125	-647.2608032226562	478.6430053710938	949.7814331054688	-646.1491088867188	374.5487365722656	932.8998413085938	-430.9663696289062	280.3933410644531	474.8416748046875	-450.6258850097656	317.4526977539062	600.0675659179688	-414.7124938964844	595.7428588867188	188.4508361816406	-392.0448303222656	433.2234802246094	312.3424987792969	-414.4550476074219	486.3061828613281	46.70759582519531	-504.9847106933594	554.5668334960938	85.95226287841797	-518.010009765625	512.73193359375	97.29420471191406	-413.7085571289062	643.6168212890625	212.6832427978516	-444.6298522949219	531.8321533203125	456.0738220214844	-680.0921020507812	517.6611938476562	717.6213989257812	-694.3135986328125	621.4361572265625	46.34622192382812	-642.6907958984375	530.0623168945312	335.7276000976562	-677.6262817382812	426.6349487304688	39.50506591796875	-689.5155029296875	542.6412963867188	30.49885559082031	-705.0785522460938	640.1280517578125	49.69646453857422	-575.138916015625	524.5106201171875	850.35302734375	-813.0944213867188	453.9312133789062	34.3673210144043	-625.5140380859375	nan	nan	nan	
385	3.84	619.7467041015625	962.5717163085938	-517.7328491210938	575.468994140625	952.2968139648438	-395.690185546875	605.5812377929688	1025.248291015625	-456.2068481445312	372.1331176757812	1207.129028320312	-517.4967041015625	606.1500244140625	1143.429443359375	-448.1315002441406	554.560791015625	1390.143920898438	-436.8931579589844	411.5846862792969	1331.27001953125	-492.9715576171875	627.6776733398438	1256.23291015625	-491.9330139160156	535.9929809570312	1350.201049804688	-340.0309753417969	437.7351684570312	1362.826904296875	-312.1468811035156	447.2591247558594	1248.007690429688	-238.4725646972656	454.0027160644531	1046.054809570312	-213.5452270507812	528.2383422851562	1039.163818359375	-254.0071563720703	408.8001708984375	786.6766967773438	-253.2166900634766	434.132568359375	788.5428466796875	-187.8950500488281	451.8696899414062	941.711181640625	-199.1460571289062	437.0694580078125	628.32275390625	-237.2841491699219	451.0201721191406	720.0003662109375	-183.8413696289062	407.8799133300781	708.3154296875	-230.2252502441406	553.5809936523438	1385.78759765625	-606.9595947265625	588.2005004882812	1330.157104492188	-668.767333984375	613.9053955078125	1079.377807617188	-760.3490600585938	614.7080688476562	1049.061401367188	-667.9478759765625	571.4575805664062	854.4710083007812	-867.69677734375	599.9651489257812	1017.49462890625	-793.851806640625	514.3433837890625	689.0314331054688	-876.9000244140625	496.2115783691406	760.7974243164062	-873.942138671875	563.5987548828125	772.0543212890625	-891.9017333984375	493.9482116699219	1600.428833007812	-542.9983520507812	311.9208679199219	1579.697265625	-444.1729736328125	331.7346801757812	1585.334594726562	-543.3975830078125	491.7946166992188	1592.397827148438	-398.8031921386719	453.8773193359375	898.3052368164062	-333.2022094726562	584.2493896484375	918.6566162109375	-651.60546875	471.2639770507812	949.2980346679688	-649.8359375	369.1801452636719	933.7374877929688	-433.5936584472656	268.4563598632812	478.1184997558594	-452.3177185058594	307.8544921875	603.087890625	-415.9798583984375	576.4480590820312	179.9948120117188	-405.1777954101562	417.4432983398438	309.9521179199219	-421.8075561523438	455.4347534179688	46.45972061157227	-516.3287353515625	525.4195556640625	81.88860321044922	-531.1543579101562	487.708984375	94.26304626464844	-425.4248962402344	623.7330932617188	202.5965423583984	-458.9324645996094	528.8108520507812	455.6189880371094	-681.0780639648438	511.4295959472656	716.7884521484375	-696.8177490234375	621.24853515625	46.54024124145508	-642.5418090820312	527.9842529296875	335.2507934570312	-678.2213134765625	426.5050659179688	39.36801147460938	-689.5191040039062	542.55126953125	30.59506988525391	-704.9812622070312	639.9172973632812	49.9444580078125	-575.0231323242188	508.2427673339844	854.1971435546875	-823.2728271484375	453.8359069824219	34.20872497558594	-625.421142578125	nan	nan	nan	
386	3.85	613.2728881835938	962.56787109375	-522.4420166015625	570.3931884765625	952.4754638671875	-399.9162902832031	600.3041381835938	1025.610473632812	-460.9644775390625	364.9033203125	1207.361572265625	-519.6387939453125	600.3238525390625	1143.732055664062	-453.2234191894531	548.497314453125	1390.320434570312	-441.5379943847656	404.805908203125	1331.48388671875	-495.4229431152344	620.960205078125	1256.523681640625	-497.7590942382812	531.5640869140625	1350.471801757812	-344.5194396972656	433.7926330566406	1362.966796875	-315.1123962402344	445.6030883789062	1248.825073242188	-241.0608215332031	454.7732543945312	1047.2421875	-214.5540313720703	527.8194580078125	1040.434448242188	-257.0905456542969	409.1602783203125	787.5892944335938	-251.1106719970703	436.7254638671875	789.8096923828125	-186.4747619628906	453.5315246582031	942.9698486328125	-199.2532653808594	437.7750549316406	629.3446655273438	-235.2496795654297	453.7095336914062	721.3080444335938	-182.629150390625	408.957763671875	709.4393310546875	-227.6433868408203	545.056396484375	1386.310180664062	-611.3948974609375	578.6663208007812	1330.962768554688	-673.905517578125	601.158203125	1081.325927734375	-769.2483520507812	603.4232177734375	1049.75	-677.2969360351562	554.33544921875	858.2410888671875	-878.6754150390625	586.0419311523438	1019.948852539062	-803.2988891601562	495.1700744628906	693.6134033203125	-889.1015625	477.9278259277344	765.5316162109375	-884.806640625	545.1276245117188	776.239501953125	-903.8263549804688	485.7046813964844	1600.747802734375	-546.8564453125	305.2631225585938	1579.455322265625	-444.9472961425781	323.3905639648438	1585.173950195312	-544.5050659179688	485.7623901367188	1592.664916992188	-402.6083679199219	449.1402282714844	899.2763061523438	-336.2075805664062	576.5140991210938	918.0540161132812	-655.815673828125	463.7359619140625	948.7295532226562	-653.3659057617188	363.7798461914062	934.3788452148438	-436.0757446289062	257.0818176269531	481.1666564941406	-453.6527404785156	298.5697326660156	605.8880004882812	-416.9954223632812	556.1892700195312	170.9666442871094	-417.9423828125	401.5237731933594	307.1434020996094	-428.7323913574219	423.6654357910156	46.1617431640625	-526.1668090820312	495.1336059570312	77.47236633300781	-543.1569213867188	461.9242858886719	91.04318237304688	-436.0664367675781	602.7003173828125	191.6934814453125	-473.0609741210938	525.9602661132812	455.2328491210938	-682.0648193359375	505.3069458007812	715.967529296875	-699.2151489257812	621.064697265625	46.73338317871094	-642.4078369140625	526.0137939453125	334.8274536132812	-678.8259887695312	426.3870544433594	39.23348236083984	-689.5285034179688	542.467041015625	30.66692543029785	-704.903564453125	639.7461547851562	50.19201278686523	-574.9563598632812	491.9604187011719	858.0250244140625	-833.0699462890625	453.7621765136719	34.07825088500977	-625.3495483398438	nan	nan	nan	
